<?xml version="1.0" encoding="UTF-8"?>
<svg width="1200pt" height="1200pt" version="1.1" viewBox="0 0 1200 1200" xmlns="http://www.w3.org/2000/svg">
 <path d="m600 62.5c-142.55 0-279.27 56.629-380.07 157.43-100.8 100.8-157.43 237.52-157.43 380.07s56.629 279.27 157.43 380.07c100.8 100.8 237.52 157.43 380.07 157.43s279.27-56.629 380.07-157.43c100.8-100.8 157.43-237.52 157.43-380.07-0.12109-142.52-56.789-279.16-157.56-379.94s-237.42-157.44-379.94-157.56zm225 612.5h-150v150c0 26.793-14.293 51.555-37.5 64.953-23.207 13.395-51.793 13.395-75 0-23.207-13.398-37.5-38.16-37.5-64.953v-150h-150c-26.793 0-51.555-14.293-64.953-37.5-13.395-23.207-13.395-51.793 0-75 13.398-23.207 38.16-37.5 64.953-37.5h150v-150c0-26.793 14.293-51.555 37.5-64.953 23.207-13.395 51.793-13.395 75 0 23.207 13.398 37.5 38.16 37.5 64.953v150h150c26.793 0 51.555 14.293 64.953 37.5 13.395 23.207 13.395 51.793 0 75-13.398 23.207-38.16 37.5-64.953 37.5z"/>
</svg>
