<?xml version="1.0" encoding="UTF-8"?>
<svg width="1200pt" height="1200pt" version="1.1" viewBox="0 0 1200 1200" xmlns="http://www.w3.org/2000/svg">
 <path d="m168.74 858.56c-10.359 0-18.75-8.3906-18.75-18.75v-485.16c0-6.8906 3.7969-13.266 9.8906-16.5 140.06-75.938 308.95-75.891 449.02 0 6.0469 3.2812 9.8438 9.6094 9.8438 16.5v485.16c0 5.8125-2.6719 11.297-7.2656 14.859-4.5938 3.5156-10.547 4.7812-16.172 3.3281-138.37-35.719-283.55-35.719-421.92 0-1.5 0.375-3.0469 0.5625-4.6406 0.5625zm18.75-492.52v449.95c129.56-29.719 264.19-29.719 393.74 0v-449.95c-123.66-63.141-270.1-63.094-393.74 0z"/>
 <path d="m1031.3 858.56c-1.5938 0-3.1406-0.1875-4.6875-0.5625-138.32-35.719-283.5-35.719-421.87 0-5.625 1.4062-11.578 0.1875-16.172-3.375-4.5938-3.5156-7.2656-9-7.2656-14.812v-485.16c0-6.8906 3.7969-13.219 9.8438-16.5 140.06-75.891 308.95-75.938 449.02 0 6.0938 3.2344 9.8906 9.6094 9.8906 16.5v485.16c0 4.9688-1.9688 9.75-5.4844 13.266s-8.2969 5.4844-13.266 5.4844zm-215.72-64.875c66.281 0.046875 132.37 7.5 196.97 22.312v-449.95c-123.66-63.094-270.1-63.141-393.74 0v449.9c55.594-12.703 112.31-20.016 169.36-21.844 9.1406-0.23438 18.281-0.375 27.422-0.42188z"/>
 <path d="m1106.3 918.74h-1012.5c-10.359 0-18.75-8.3906-18.75-18.75v-487.5c0-10.359 8.3906-18.75 18.75-18.75h75c4.9688 0 9.75 1.9688 13.266 5.4844 3.5156 3.5156 5.4844 8.2969 5.4844 13.266v403.5c135.94-31.172 277.31-29.625 412.5 4.5 135.19-34.125 276.56-35.672 412.5-4.5v-403.5c0-10.359 8.3906-18.75 18.75-18.75h75c4.9688 0 9.75 1.9688 13.266 5.4844 3.5156 3.5156 5.4844 8.2969 5.4844 13.266v487.5c0 4.9688-1.9688 9.75-5.4844 13.266-3.5156 3.5156-8.2969 5.4844-13.266 5.4844zm-993.74-37.5h975v-450h-37.5v408.56c0 5.8125-2.6719 11.297-7.2656 14.812-4.5938 3.5625-10.547 4.8281-16.172 3.375-138.32-35.719-283.5-35.719-421.87 0-3.0938 0.75-6.2812 0.75-9.375 0-138.37-35.719-283.55-35.719-421.87 0-5.625 1.4062-11.578 0.1875-16.172-3.375-4.5938-3.5156-7.2656-9-7.2656-14.812v-408.56h-37.5z"/>
 <path d="m525 431.26h-75c-10.359 0-18.75-8.3906-18.75-18.75 0-10.359 8.3906-18.75 18.75-18.75h75c10.359 0 18.75 8.3906 18.75 18.75 0 10.359-8.3906 18.75-18.75 18.75z"/>
 <path d="m375 431.26h-131.26c-10.359 0-18.75-8.3906-18.75-18.75 0-10.359 8.3906-18.75 18.75-18.75h131.26c10.359 0 18.75 8.3906 18.75 18.75 0 10.359-8.3906 18.75-18.75 18.75z"/>
 <path d="m525 525h-37.5c-10.359 0-18.75-8.3906-18.75-18.75s8.3906-18.75 18.75-18.75h37.5c10.359 0 18.75 8.3906 18.75 18.75s-8.3906 18.75-18.75 18.75z"/>
 <path d="m431.26 525h-93.75c-10.359 0-18.75-8.3906-18.75-18.75s8.3906-18.75 18.75-18.75h93.75c10.359 0 18.75 8.3906 18.75 18.75s-8.3906 18.75-18.75 18.75z"/>
 <path d="m262.5 525h-18.75c-10.359 0-18.75-8.3906-18.75-18.75s8.3906-18.75 18.75-18.75h18.75c10.359 0 18.75 8.3906 18.75 18.75s-8.3906 18.75-18.75 18.75z"/>
 <path d="m525 618.74h-168.74c-10.359 0-18.75-8.3906-18.75-18.75 0-10.359 8.3906-18.75 18.75-18.75h168.74c10.359 0 18.75 8.3906 18.75 18.75 0 10.359-8.3906 18.75-18.75 18.75z"/>
 <path d="m281.26 618.74h-37.5c-10.359 0-18.75-8.3906-18.75-18.75 0-10.359 8.3906-18.75 18.75-18.75h37.5c10.359 0 18.75 8.3906 18.75 18.75 0 10.359-8.3906 18.75-18.75 18.75z"/>
 <path d="m525 712.5h-112.5c-10.359 0-18.75-8.3906-18.75-18.75s8.3906-18.75 18.75-18.75h112.5c10.359 0 18.75 8.3906 18.75 18.75s-8.3906 18.75-18.75 18.75z"/>
 <path d="m356.26 712.5h-112.5c-10.359 0-18.75-8.3906-18.75-18.75s8.3906-18.75 18.75-18.75h112.5c10.359 0 18.75 8.3906 18.75 18.75s-8.3906 18.75-18.75 18.75z"/>
 <path d="m768.74 431.26h-93.75c-10.359 0-18.75-8.3906-18.75-18.75 0-10.359 8.3906-18.75 18.75-18.75h93.75c10.359 0 18.75 8.3906 18.75 18.75 0 10.359-8.3906 18.75-18.75 18.75z"/>
 <path d="m975 431.26h-131.26c-10.359 0-18.75-8.3906-18.75-18.75 0-10.359 8.3906-18.75 18.75-18.75h131.26c10.359 0 18.75 8.3906 18.75 18.75 0 10.359-8.3906 18.75-18.75 18.75z"/>
 <path d="m712.5 525h-37.5c-10.359 0-18.75-8.3906-18.75-18.75s8.3906-18.75 18.75-18.75h37.5c10.359 0 18.75 8.3906 18.75 18.75s-8.3906 18.75-18.75 18.75z"/>
 <path d="m862.5 525h-75c-10.359 0-18.75-8.3906-18.75-18.75s8.3906-18.75 18.75-18.75h75c10.359 0 18.75 8.3906 18.75 18.75s-8.3906 18.75-18.75 18.75z"/>
 <path d="m956.26 525h-18.75c-10.359 0-18.75-8.3906-18.75-18.75s8.3906-18.75 18.75-18.75h18.75c10.359 0 18.75 8.3906 18.75 18.75s-8.3906 18.75-18.75 18.75z"/>
 <path d="m843.74 618.74h-168.74c-10.359 0-18.75-8.3906-18.75-18.75 0-10.359 8.3906-18.75 18.75-18.75h168.74c10.359 0 18.75 8.3906 18.75 18.75 0 10.359-8.3906 18.75-18.75 18.75z"/>
 <path d="m956.26 618.74h-37.5c-10.359 0-18.75-8.3906-18.75-18.75 0-10.359 8.3906-18.75 18.75-18.75h37.5c10.359 0 18.75 8.3906 18.75 18.75 0 10.359-8.3906 18.75-18.75 18.75z"/>
 <path d="m768.74 712.5h-93.75c-10.359 0-18.75-8.3906-18.75-18.75s8.3906-18.75 18.75-18.75h93.75c10.359 0 18.75 8.3906 18.75 18.75s-8.3906 18.75-18.75 18.75z"/>
 <path d="m956.26 712.5h-112.5c-10.359 0-18.75-8.3906-18.75-18.75s8.3906-18.75 18.75-18.75h112.5c10.359 0 18.75 8.3906 18.75 18.75s-8.3906 18.75-18.75 18.75z"/>
</svg>
