<?xml version="1.0" encoding="UTF-8"?>
<svg width="1200pt" height="1200pt" version="1.1" viewBox="0 0 1200 1200" xmlns="http://www.w3.org/2000/svg">
 <path d="m600 543.75c60.668 0 118.85-24.102 161.75-67s67-101.08 67-161.75-24.102-118.85-67-161.75-101.08-67-161.75-67-118.85 24.102-161.75 67-67 101.08-67 161.75 24.102 118.85 67 161.75 101.08 67 161.75 67zm0-401.25c30.473-0.68359 60.562 6.8945 87.07 21.938 26.508 15.043 48.449 36.984 63.492 63.492 15.043 26.508 22.621 56.598 21.938 87.07 0 45.75-18.176 89.625-50.523 121.98-32.352 32.348-76.227 50.523-121.98 50.523s-89.625-18.176-121.98-50.523c-32.348-32.352-50.523-76.227-50.523-121.98-0.68359-30.473 6.8945-60.562 21.938-87.07 15.043-26.508 36.984-48.449 63.492-63.492 26.508-15.043 56.598-22.621 87.07-21.938z"/>
 <path d="m600 626.25c-126.05-0.76953-247.93 45.176-342.11 128.96-94.18 83.793-153.99 199.5-167.89 324.79 0 11.25 0 18.75 7.5 22.5 1.5547 3.6016 4.2031 6.6211 7.5664 8.6406 3.3633 2.0195 7.2734 2.9297 11.184 2.6094h967.5c3.9102 0.32031 7.8203-0.58984 11.184-2.6094 3.3633-2.0195 6.0117-5.0391 7.5664-8.6406 7.5-3.75 7.5-11.25 7.5-22.5-13.902-125.29-73.711-240.99-167.89-324.79-94.18-83.789-216.05-129.73-342.11-128.96zm-450 431.25c18.605-105.6 74.008-201.2 156.38-269.84 82.371-68.645 186.39-105.9 293.62-105.16 107.22-0.74219 211.25 36.516 293.62 105.16 82.375 68.645 137.78 164.24 156.38 269.84z"/>
</svg>
