<?xml version="1.0" encoding="UTF-8"?>
<svg width="1200pt" height="1200pt" version="1.1" viewBox="0 0 1200 1200" xmlns="http://www.w3.org/2000/svg">
 <path d="m846.28 393.1h-493.03c-17.953 0-32.531 14.578-32.531 32.531s14.578 32.484 32.531 32.484h493.03c17.953 0 32.484-14.531 32.484-32.484s-14.531-32.531-32.484-32.531zm0 174.32h-493.03c-17.953 0-32.531 14.578-32.531 32.531s14.578 32.484 32.531 32.484h493.03c17.953 0 32.484-14.531 32.484-32.484s-14.531-32.531-32.484-32.531zm-207.47 174.32h-285.56c-17.953 0-32.531 14.578-32.531 32.531s14.578 32.484 32.531 32.484h285.56c17.953 0 32.484-14.578 32.484-32.531s-14.531-32.484-32.484-32.484zm309.61 127.31-184.45 184.97v-165.32c0.32812-10.688 8.9531-19.312 19.688-19.594zm-20.109-723.47c10.734 0.23437 19.406 8.8594 19.688 19.594l0.375 638.39h-164.26c-46.688 0-84.656 37.5-85.547 84.047v166.55l-427.4-0.32812c-10.734-0.28125-19.359-8.9062-19.688-19.594v-869.06c0.32812-10.734 8.9531-19.359 19.688-19.594zm-0.46875-65.578v0.046876h-656.16c-46.688 0-84.656 37.5-85.547 84.047v871.18c0.89062 46.594 38.812 84.047 85.5 84.047l0.046875-0.046875v0.046875l504.89 0.51562c8.2969 0 16.594-3.1875 22.922-9.5156l204.42-204.94c6.75-6.7969 9.9375-15.844 9.4219-24.75l0.046874-716.53c-0.046874-46.594-38.859-84.047-85.547-84.094z"/>
</svg>
