<?xml version="1.0" encoding="UTF-8"?>
<svg width="1200pt" height="1200pt" version="1.1" viewBox="0 0 1200 1200" xmlns="http://www.w3.org/2000/svg">
 <path d="m898.03 60.938h198.66c23.859 0 43.172 19.359 43.172 43.172v991.74c0 23.859-19.359 43.172-43.172 43.172h-198.66c-23.859 0-43.172-19.359-43.172-43.172l-0.046875-991.69c0-23.859 19.359-43.219 43.219-43.219zm-794.72 695.34h198.66c23.859 0 43.172 19.359 43.172 43.172l0.046875 296.39c0 23.859-19.359 43.172-43.172 43.172h-198.71c-23.859 0-43.172-19.359-43.172-43.172v-296.34c0-23.859 19.312-43.219 43.172-43.219zm397.36-347.63h198.66c23.859 0 43.172 19.359 43.172 43.172l0.046875 644.02c0 23.859-19.359 43.172-43.172 43.172h-198.71c-23.859 0-43.172-19.359-43.172-43.172l-0.046876-644.02c0-23.859 19.359-43.172 43.219-43.172z" fill-rule="evenodd"/>
</svg>
